<svg xmlns="http://www.w3.org/2000/svg" width="60px" height="60px" viewBox="0 0 60 60"><g fill="#F04D4D"><path d="M30 0C13.5 0 0 13.5 0 30s13.5 30 30 30 30-13.5 30-30S46.5 0 30 0zm0 55.688C15.844 55.688 4.312 44.156 4.312 30S15.845 4.312 30 4.312 55.688 15.845 55.688 30 44.156 55.688 30 55.688zm-8.625-33.563c1.78 0 2.906 1.125 3 2.72 0 .374.28.655.656.655h3.097c.375 0 .656-.28.656-.656 0-4.125-3.093-7.032-7.31-7.032s-6.845 3.094-7.314 6.75c-.28 2.532-.28 6 0 8.532.47 3.656 3.093 6.75 7.312 6.75s7.31-2.907 7.31-7.032c0-.374-.28-.656-.654-.656H25.03c-.374 0-.56.282-.655.657-.094 1.593-1.22 2.718-3 2.718-1.875 0-2.813-1.122-3-2.434-.28-2.532-.28-6 0-8.532.188-1.312 1.125-2.437 3-2.437zm25.313 13.22H39c-.188 0-.28-.095-.28-.282v-16.22c0-.374-.282-.655-.657-.655H34.97c-.377 0-.658.28-.658.656v20.25c0 .375.28.656.656.656h11.624c.375 0 .656-.28.656-.656V36c.094-.375-.188-.656-.563-.656z"/></g></svg>
