<svg xmlns="http://www.w3.org/2000/svg" width="95px" height="32px" viewBox="0 0 95 32"><g fill="#f04D4D"><path d="M92 5h1.1s.1 0 .1.1v.4s0 .1-.1.1h-1.6s-.1 0-.1-.1V2.8s0-.1.1-.1h.4s.1 0 .1.1V5zm-1.9-.3c0-.1 0-.1 0 0l.5-.1s.1 0 .1.1c0 .6-.4.9-1 .9s-.9-.4-1-.9V3.6c.1-.5.4-.9 1-.9s1 .4 1 .9c0 0 0 .1-.1.1h-.4s-.1 0-.1-.1c0-.2-.2-.4-.4-.4-.3 0-.4.2-.4.3v1.1c0 .2.2.3.4.3.2.2.4 0 .4-.2z"/><path d="M90.9 8.5c-2.2 0-4-1.8-4-4s1.8-4 4-4 4 1.8 4 4-1.8 4-4 4zm0-7.5c-1.9 0-3.4 1.5-3.4 3.4s1.5 3.4 3.4 3.4 3.5-1.5 3.5-3.4S92.8 1 90.9 1zM95 21.6v-1.8c0-6.8-4.4-9.5-10.2-9.5-6 0-10.8 3.5-10.8 10.8 0 7.1 4.6 10.5 10.8 10.5 5.6 0 8.8-2.5 10-7.1l-.6-.2c-1.6 1.9-3.6 2.7-6.2 2.6-2.9 0-5.4-1.8-5.8-5.7-.4-7 .7-8.7 2.5-8.6 1.8 0 2.7 1.4 2.7 6.7l-5.2 2.4 12.8-.1zm-32.2 9.5v-4.9c-.4 2.7-3.2 5.4-6.1 5.4-4.3 0-8.2-3.1-8.2-10.4 0-8 4.6-10.8 9.2-10.8 2.5 0 4.1.9 5 1.9V5.2c0-.5 0-.6-.3-.9l-1.7-2v-.6L70.6.3v27.4c0 .5 0 .6.3.9l1.7 1.9v.6h-9.8zm0-4.9V14.4c-.3-.6-1.1-1.1-2.2-1.1-1.9 0-3.7 1.6-3.7 7.1 0 5.3 1.7 7.2 3.5 7.2.8.1 1.9-.4 2.4-1.4zM22 21.1c0-6.7 4.2-10.8 11.8-10.8 7.4 0 11.6 3.9 11.6 10.5 0 6.7-4.2 10.8-11.7 10.8-7.5 0-11.6-3.8-11.7-10.5zm14.7 0c0-6.3-1.1-8.5-3-8.5-1.8 0-2.9 2.1-2.9 8.3 0 6.3 1.2 8.5 3 8.5s2.9-2.2 2.9-8.3zm-22.5 5.6c1.8 0 3.5-.7 4.6-2.1l.6.3c-1.2 4.3-4.3 6.8-9.2 6.8C4.6 31.7 0 28.3 0 21.2c0-7.7 5.5-10.9 12.1-10.9 2.1 0 4.7.3 7.4 1.4l-3 7.3-3.7-6.1c-.2-.4-.4-.5-.7-.5h-.3c-2.2 0-3.3 2.8-3.3 6.5-.1 5.8 2.7 7.8 5.7 7.8z"/></g></svg>
