<svg xmlns="http://www.w3.org/2000/svg" width="38px" height="30px" viewBox="0 0 38 30"><g fill="#1F1F41"><path d="M36.6.1H6.7C6 .1 5.4.7 5.4 1.4v4.1H1.3C.6 5.5 0 6.1 0 6.9v19C0 28.1 1.8 30 4.1 30h32.6c.7 0 1.4-.6 1.4-1.4V1.4C38 .7 37.3.1 36.6.1zM23.7 5.5h9.5c.4 0 .7-.3.7-.7 0-.4-.3-.7-.7-.7h-9.5c-.4 0-.7.3-.7.7 0 .4.3.7.7.7zM10.1 17.7h9.5c.4 0 .7-.3.7-.7V4.8c0-.4-.3-.7-.7-.7h-9.5c-.4 0-.7.3-.7.7V17c.1.4.4.7.7.7zm.7-12.2H19v10.9h-8.1V5.5zm25.8 23.1H4c-1.5 0-2.7-1.2-2.7-2.7v-19h4.1v18.3c0 .4.3.7.7.7.4 0 .7-.3.7-.7V1.4h29.9l-.1 27.2zm-12.9-19h9.5c.4 0 .7-.3.7-.7s-.3-.7-.7-.7h-9.5c-.4 0-.7.3-.7.7s.3.7.7.7zm0 4.1h9.5c.4 0 .7-.3.7-.7 0-.4-.3-.7-.7-.7h-9.5c-.4 0-.7.3-.7.7s.3.7.7.7zm0 4h9.5c.4 0 .7-.3.7-.7 0-.4-.3-.7-.7-.7h-9.5c-.4 0-.7.3-.7.7 0 .4.3.7.7.7zm-13.6 4.1h23.1c.4 0 .7-.3.7-.7 0-.4-.3-.7-.7-.7H10.1c-.4 0-.7.3-.7.7.1.4.4.7.7.7zm0 4.1h23.1c.4 0 .7-.3.7-.7 0-.4-.3-.7-.7-.7H10.1c-.4 0-.7.3-.7.7.1.4.4.7.7.7z"/></g></svg>
